<?xml version="1.0" standalone="no"?><!DOCTYPE svg PUBLIC "-//W3C//DTD SVG 1.1//EN" "http://www.w3.org/Graphics/SVG/1.1/DTD/svg11.dtd"><svg t="1657520225890" class="icon" viewBox="0 0 1024 1024" version="1.1" xmlns="http://www.w3.org/2000/svg" p-id="5197" xmlns:xlink="http://www.w3.org/1999/xlink" width="200" height="200"><defs><style type="text/css">@font-face { font-family: feedback-iconfont; src: url("//at.alicdn.com/t/font_1031158_u69w8yhxdu.woff2?t=1630033759944") format("woff2"), url("//at.alicdn.com/t/font_1031158_u69w8yhxdu.woff?t=1630033759944") format("woff"), url("//at.alicdn.com/t/font_1031158_u69w8yhxdu.ttf?t=1630033759944") format("truetype"); }
</style></defs><path d="M510.844518 870.016867C313.926119 870.016867 153.618244 709.830621 153.618244 512.790593c0-196.918399 160.307875-357.226274 357.226274-357.226274 196.918399 0 357.226274 160.307875 357.226274 357.226274C868.070792 709.830621 707.884547 870.016867 510.844518 870.016867L510.844518 870.016867zM510.844518 189.62062C332.657085 189.62062 187.674546 334.60316 187.674546 512.790593c0 178.187433 144.982539 323.169973 323.169973 323.169973 178.187433 0 323.169973-144.982539 323.169973-323.169973C834.136121 334.60316 689.031952 189.62062 510.844518 189.62062L510.844518 189.62062z" p-id="5198" fill="#d81e06"></path><path d="M659.111058 653.151206l-1.946074 1.946074c-6.568001 6.568001-17.27141 6.568001-23.839411 0L380.092648 403.080651c-6.568001-6.568001-6.568001-17.27141 0-23.839411l1.946074-1.946074c6.568001-6.568001 17.27141-6.568001 23.839411 0l253.111296 252.138259C665.55743 635.879796 665.55743 646.583205 659.111058 653.151206z" p-id="5199" fill="#d81e06"></path><path d="M382.525241 655.705428l-1.946074-1.946074c-6.568001-6.568001-6.568001-17.27141 0-23.839411l252.138259-253.111296c6.568001-6.568001 17.27141-6.568001 23.839411 0l1.946074 1.946074c6.568001 6.568001 6.568001 17.27141 0 23.839411L406.364651 655.583799C399.91828 662.1518 389.093241 662.273429 382.525241 655.705428z" p-id="5200" fill="#d81e06"></path></svg>