<?xml version="1.0" standalone="no"?><!DOCTYPE svg PUBLIC "-//W3C//DTD SVG 1.1//EN" "http://www.w3.org/Graphics/SVG/1.1/DTD/svg11.dtd"><svg t="1657158316135" class="icon" viewBox="0 0 1024 1024" version="1.1" xmlns="http://www.w3.org/2000/svg" p-id="3560" xmlns:xlink="http://www.w3.org/1999/xlink" width="200" height="200"><defs><style type="text/css">@font-face { font-family: feedback-iconfont; src: url("//at.alicdn.com/t/font_1031158_u69w8yhxdu.woff2?t=1630033759944") format("woff2"), url("//at.alicdn.com/t/font_1031158_u69w8yhxdu.woff?t=1630033759944") format("woff"), url("//at.alicdn.com/t/font_1031158_u69w8yhxdu.ttf?t=1630033759944") format("truetype"); }
</style></defs><path d="M238.4 774.4c-6.4 0-12.8-1.6-17.6-6.4-9.6-9.6-9.6-24 0-33.6l80-80c9.6-9.6 24-9.6 33.6 0s9.6 24 0 33.6l-80 80c-4.8 3.2-9.6 6.4-16 6.4zM393.6 880c-1.6 0-4.8 0-6.4-1.6-12.8-3.2-20.8-16-17.6-28.8l28.8-110.4c3.2-12.8 16-20.8 28.8-17.6 12.8 3.2 20.8 16 17.6 28.8L416 860.8c-1.6 11.2-11.2 19.2-22.4 19.2zM580.8 892.8c-11.2 0-20.8-6.4-22.4-17.6l-28.8-110.4c-3.2-12.8 4.8-25.6 17.6-28.8 12.8-3.2 25.6 4.8 28.8 17.6l28.8 110.4c3.2 12.8-4.8 25.6-17.6 28.8h-6.4zM750.4 809.6c-6.4 0-12.8-1.6-17.6-6.4l-80-80c-9.6-9.6-9.6-24 0-33.6s24-9.6 33.6 0l80 80c9.6 9.6 9.6 24 0 33.6-3.2 4.8-9.6 6.4-16 6.4zM856 654.4c-1.6 0-4.8 0-6.4-1.6L739.2 624c-12.8-3.2-20.8-16-17.6-28.8 3.2-12.8 16-20.8 28.8-17.6l110.4 28.8c12.8 3.2 20.8 16 17.6 28.8-3.2 11.2-12.8 19.2-22.4 19.2zM758.4 496c-11.2 0-20.8-6.4-22.4-17.6-3.2-12.8 4.8-25.6 17.6-28.8l110.4-28.8c12.8-3.2 25.6 4.8 28.8 17.6 3.2 12.8-4.8 25.6-17.6 28.8L764.8 496h-6.4zM705.6 377.6c-6.4 0-12.8-1.6-17.6-6.4-9.6-9.6-9.6-24 0-33.6l80-80c9.6-9.6 24-9.6 33.6 0s9.6 24 0 33.6l-80 80c-3.2 4.8-9.6 6.4-16 6.4zM600 302.4c-1.6 0-4.8 0-6.4-1.6-12.8-3.2-20.8-16-17.6-28.8l28.8-110.4c3.2-12.8 16-20.8 28.8-17.6 12.8 3.2 20.8 16 17.6 28.8l-27.2 112c-3.2 11.2-12.8 17.6-24 17.6zM472 289.6c-11.2 0-20.8-6.4-22.4-17.6l-28.8-110.4c-3.2-12.8 4.8-25.6 17.6-28.8 12.8-3.2 25.6 4.8 28.8 17.6l28.8 110.4c3.2 12.8-4.8 25.6-17.6 28.8h-6.4zM353.6 342.4c-6.4 0-12.8-1.6-17.6-6.4l-80-80c-9.6-9.6-9.6-24 0-33.6 9.6-9.6 24-9.6 33.6 0l80 80c9.6 9.6 9.6 24 0 33.6-3.2 4.8-9.6 6.4-16 6.4zM278.4 448c-1.6 0-4.8 0-6.4-1.6l-110.4-28.8c-12.8-3.2-20.8-16-17.6-28.8 3.2-12.8 16-20.8 28.8-17.6l110.4 28.8c12.8 3.2 20.8 16 17.6 28.8-1.6 11.2-11.2 19.2-22.4 19.2zM155.2 604.8c-11.2 0-20.8-6.4-22.4-17.6-3.2-12.8 4.8-25.6 17.6-28.8l110.4-28.8c12.8-3.2 25.6 4.8 28.8 17.6 3.2 12.8-4.8 25.6-17.6 28.8l-110.4 28.8h-6.4z" p-id="3561" fill="#1296db"></path></svg>