<?xml version="1.0" standalone="no"?><!DOCTYPE svg PUBLIC "-//W3C//DTD SVG 1.1//EN" "http://www.w3.org/Graphics/SVG/1.1/DTD/svg11.dtd"><svg t="1622870532293" class="icon" viewBox="0 0 1024 1024" version="1.1" xmlns="http://www.w3.org/2000/svg" p-id="4112" xmlns:xlink="http://www.w3.org/1999/xlink" width="200" height="200"><defs><style type="text/css"></style></defs><path d="M64 104.1c0-1.3 0.5-2.6 1.5-3.6s2.3-1.5 3.6-1.5H101c1.3 0 2.6 0.5 3.6 1.5s1.5 2.3 1.5 3.6V883H955c1.3 0 2.6 0.5 3.6 1.5s1.5 2.3 1.5 3.6V920c0 1.3-0.5 2.6-1.5 3.6s-2.3 1.5-3.6 1.5H64v-821z" p-id="4113" fill="#2c2c2c"></path><path d="M601.4 654.6L374.7 455.1 223.8 644.5 162 595.3l203.3-254.5 227.9 201.4L900.1 176l60 50.5-358.7 428.1z" p-id="4114" fill="#2c2c2c"></path></svg>