<?xml version="1.0" standalone="no"?><!DOCTYPE svg PUBLIC "-//W3C//DTD SVG 1.1//EN" "http://www.w3.org/Graphics/SVG/1.1/DTD/svg11.dtd"><svg t="1622870564007" class="icon" viewBox="0 0 1024 1024" version="1.1" xmlns="http://www.w3.org/2000/svg" p-id="4935" xmlns:xlink="http://www.w3.org/1999/xlink" width="200" height="200"><defs><style type="text/css"></style></defs><path d="M841.6 801.2c-2.9-0.4-0.4-4.6-4.4-6.1v-1.7l-0.8-0.9c-1.4-1-3.2-0.5-5.1-1.4 0-1.4-1.1-2.3-1.5-4.2-1.8 0-1.4-2.1-2.2-3.5l-3.6-3.7c0.4-3.1 2.7-6.8 2.2-10.4-0.4-1.4-0.4-3.3-1.8-4.2 0.7-6.1 2.7-12.1 5.9-17.4 0-1.9-0.4-4.9 1.2-7.2l2.8-1.5c0.9-1 0.9-3.6 1.3-5.8 1-2.4 4.9-2.8 5.7-6.4 1.9-0.4 3.6-0.9 5.1-2.8 1.5 0 3.8-1.4 5.6-1.4 1.3 1.4 1.8 3.3 4.8 3.8 3.1 11.7 0 26-0.5 39.2-3.4 5.8-1.2 14.1-6.1 19.7-1.4 3.1-0.5 6.8-1 10.3-0.4 2.4-0.9 4.2-3.4 5.2-1.4-0.4-2.4 1-4.2 0.4z m-214.4 93.7c-0.8-1-3.1-1.5-5.3-2.4l-1-1.4c-1.6-0.4-3.8 0-5.6-1.4l-1.4-1.5c-0.4-1.6 0-3.5-1.3-5.3l-1.2-1c0-2.9-1.3-5.4-0.9-8.7 0.4-1.4 2.9-2.3 2.5-4.9 4-3.3 8.3-7.2 13.8-10.6 3.4 0 5.2-0.9 8.4-2.4 2 0 2 1.5 4.3 1.9l2.8-0.4 1.3-2.4-0.9-1.2c-1.3-0.4-3.6-0.9-5.4-1.9-1.1-1.4-2.9-2.4-3.8-4.2 0-3.1-2.3-4.9-2.7-8.6l-1.4-1.5c-0.4-1.7-0.4-4-0.9-5.8l-0.6-1c-2.3-0.4-4.1-0.4-6.8-1-1.1-1.2-2.9-1.6-3.8-3.5-3.2-1-6.5-1.4-9.8-1.4-3.1 0-2.2 2.8-5.1 3.8-2.8 0.7-5.1 0.7-8.4 0.7-3.6-1.2-5.9-2.6-9.8-4.5-1.7 0-4.7 0.4-7-1-1.8-2.8-4.9-4.9-7.4-8.2-0.9-0.5-0.9-2.4-1.8-4.5-0.4-3.3 1.3-7 0.4-11l-1.4-0.9c-1.3 0-3.8 0.4-5.6 0.4-5.4-1.9-10.5-4.3-15.4-7.3-0.5 2.4-4.1 3.5-5.1 6.4-1.3 1.8-4.7 2.8-6.1 5.8-2.3 1.9-6.5 1-9.7 1-1.4 0.5-1.9 1.9-4.4 2.4-6.5-2.4-13.8 0-20.9-2.8-1.5 0-3.3 0.5-4.3 1.5L494 809c-1.9 0-4.8 0-7-0.4-1.8 0.4-4.1 0-5.7 1.9-0.9 6.7 2.9 14.9-1.3 21.3-2.2-0.5-2.7 1.8-5.4 2.3-1.6 0-2.5-0.5-4.3-0.9-2.3-1.4-1.4-4.2-4.8-4.9-0.4-2.4-1.3-4.2-2.2-7l-1-1c-2.8 0-1.8 3.3-4.7 4.2-1.8 0-4.5 0.5-6.8-1-1.1-1.5-2.4-2.8-3.8-3.9-0.9-0.5-0.9-3.3-2.2-4.2-0.9-0.5-2.2-1-2.7-3.3-1.2-1-2.8-1.6-4.4-1.6-1-1-2.2-1.5-3.6-2.8-0.7-1.4-2-1.9-2.6-4.5 0-2.8 0.5-5.1 0.5-8.6 2.4-1 0.4-3.3 2-5.6-1.2-1.5-3-1.9-5.2-3.1-1-2.3-3.2-3.2-4.4-6.5 0-3.1-0.4-5.4-0.4-8.6l-1.3-3.1c-4.2-2.4-10.2 0.5-15.5-1l-1.9-1.4c-1.2-6.2-1.4-12.5-0.8-18.8 0.4-2.6 3.6-2.2 4.5-4.9v-2.8c2-2.4 3.8-6.8 7.9-8.2 1.6-1.9 3.5-4.5 6.1-5.9 1.3-0.9 1.3-3.3 1.3-5.9 1.4-1.7 2.4-3.6 2.9-5.6-0.4-3 0.4-5.4 0.9-8.6 1.4-4.9 0-6.8 0-9.6l-1.8-2.6-2.9-0.9c-2.4-5.1-4.6-10.3-6.6-15.6-1.3-0.4-2.3 0-4-0.4-1 1.4-3.8 4.5-4.8 6.8-2.8 2.4-7.5 0.9-11.1 1.4-5.2-1.9-8.3-6.3-12.7-9.2h-5.5l-3.4 2.4c-1.9 0-2.8 1.6-5.4 2h-1.6l-2.8 1c-1.8 1.3-4 3.2-7 4.7-2.2 3.5-7.5 3-12 4.9l-0.9 1.4c-1.6 0.5-2 1.9-4.4 2.4h-2.7c-1.4 0.5-1.9 2.2-4.4 2.6-5.5 1.2-11.3 1.1-16.8-0.4l-3.2-3.5c-0.9-2.4 0-4.2-0.4-7.3-2.2-2.6-4.9-4.9-7.9-6.5-1-2.1-2.7-3.9-4.8-5l-1.3-2.8-2.8-1.7-1.4-2.8c-2.4-1.5-6.5-1.9-9.9-2.8l-2.8-2.6h-8.3c-1.9 2.1-4.9 3.5-6.2 5.8 0 2.4-1.4 4.1-2.3 6.9-0.4 0.9-2.2 0.9-4.3 1.9-1.3 0-3.6-1-5.4-1.5-3.4-3.7 0.4-11-3.4-15.5-2.2 0.5-4.1 2.3-7 1.9-1.8-0.4-2.2-3.3-4.5-4.2h-7l-4.4-2.4c-4.1-1-9.3-3.6-13.8-4.5-1.9 0-2.6-1.5-4.3-2.4-2.8 0-6.6 0-9.8-1.4-0.9-1.7-1.8-3.1-2.7-5.9-2.6-0.5-4.4-1.9-7-2.8-1-1.2-1.3-1.6-2.2-3.5 0-1.4 0-2.3-0.6-4.2-1.9-0.9-4.1-1.3-6.4-2.6l-1.5-2.8-2.8-1.5c-1.3-1.3-0.9-4.8-1.3-7.2l-2.4-2.3-2.9-1.9c-1.8-1.2-4.9-1.2-7-3-5.3-10.3-12.5-19.4-21.3-26.9-1.3 0-2.3 0-4.3 0.4-1.9 1.4-2.7 3.7-5.4 4.5-0.9-1.2-3.4-1.2-5.2-2.6-2.2-4.4-4.9-8.6-7.9-12.5-1.4-1.9-1.9-5.4-3.7-7.3-3-3.1-5.8-6.5-8.3-10l-3-0.5c-1.3-1.6-2.2-4.4-4.9-5.4-2-8.7 0-16.9-1.2-26 1.2-1.4 0-4 1.2-5.8 1.8-1 2.7-2.4 5.4-3.3h1.3c1.6 1.4 2.1 3.3 4.8 3.8l1.4-2c0-8.2-1.9-15-2.8-21.3 1.3-2.4 2.8-4.2 4.1-7.5-3.8-7.2-5.6-15.2-5.4-23.2 0-3.5-3.8 0-5.1-3.1h-3c-4.4-2.3-7.5-7.6-11.4-12-2.2-0.4-2.7-1.9-5.4-2.8l-1.1-1c-2.2-6.8 0-14.5-2.2-21.8-2.3-1-2.8-4.5-5.1-6.4-2.9-1.4-4.3-3.3-7.5-5.6-0.4-1.9-0.4-4 0-5.9 1.9-1.9 4.6-2.4 8-4l0.9-0.9v-5.8c0.9-2.6 2.3-4 3.2-7.3 0-1.4-0.4-4-0.4-5.8-0.5-1.4-0.5-3.3-1.9-4.3-3.5-1.6-6.1 0-9.8-2.1-0.8-0.9-1.5-2.8-3.4-3.7l-0.8-3 0.9-2.8c1.4-1.5 2.9-2.4 4.4-4.7-1.2-3.8-1.1-8 0.4-11.7 1.9 0 2.3-1.4 4.1-2.4l0.4-1.4c2.6-1.4 5.2-2.6 8-5.8 3.8-1.5 7-0.5 11.3-1l2.7-1.5c3.8 0 7 1.9 11.1 1.5 2 0 3.8 1.9 4.7 3.7 2.3 0.9 4.3 0 7 0.4 2.8-1.4 3.6-3.2 7-4.2l1.3-2.9c0.4-1.2 2.3-1.2 4.1-2.1 2.9 0 7 0.5 9.5-2.4 8.4-2.8 16.3 0 25.2 1 3.6-1.4 7.9-3.7 12.4-3.3l2.6-1.4c1.8-4 5.4-8.6 4.5-14.5l2.8-2.4c1.6 0 1.6-2.1 3.4-3.5h1.3l0.9-0.8c0.4-10.1 0.4-21.1 0.9-32 2.5-0.9 0.4-3.2 2-5.6 2.3 0 2.3-3.1 4.9-3.6 6.6 1 15-2.8 20.7 3.1H235l1.3-2.1c0.5-3.2 0-6.1 1.4-10l2.6-1.9 0.8-2.8c0.7-1.4 1.8-2.6 3.2-3.5 0.9-1.9 1.8-4.7 3.4-7.3 2.3-0.5 1.3-3.3 3.2-5.1 2.2-0.5 2.7-2.6 5.2-3.6 3.6 0 5.9 3.5 10.6 4.5 1.8 0.4 2.7 3.2 5.6 3.7h1.3l5 1.4c2.9 0 5.8-0.6 8.4-1.9 1.6-0.4 1.2-4.2 2.9-5.3-0.4-3.7-0.9-9.2 1.8-12.9 0.5-1 3.8-0.4 3.8-2.8 1.4-0.5 3.6 0 5.4-0.5 2.3-0.6 3.9-1.2 5.3-3l0.4-1.5c1.3-1.3 1.3-2.8 3.1-4.2 6.6-1.6 14.5-4.9 21.1-2 2.2 4.9-0.5 12.2 1.8 18.2 1.8 1.2 3.4 2.6 4.8 5 1.7 0.4 3.1 1.8 4 4.4 1.3 1 2.9 1.9 5.8 2.8 1.3 0.5 2.2-1 4-0.5 2.1 1 2.6 3.8 5.2 4.2 0.4 1 0.4 3.1 1.9 4 0.4 3.7 0 8.6 1.3 12.8l1.6 1c3.1 4.5 0.8 10.8 3.6 16-1.3 3.9-1.8 8.6-5.6 12.2-0.5 3.8-0.4 7.7 0.4 11.5 3.4 2.2 7.3 3.4 11.3 3.5l2.2 1.9c5.8 1.4 12.3 1.9 16.8 5.8h2.9c4.1 1 6.4 5.2 11.1 7 0 1.7 0.9 4 1.3 5.9 2.8 0.4 2.8 4.5 5.8 5.8h1.3c1.3 0.5 3.2 0.5 4 1.9 1.6 2.3 1.2 6.8 1.6 10.1l2.8 4c-0.4 1.9 1.8 2.8 1.4 5.6 0.8 1 1.3 2.6 2.9 4v2.8c0 1.4 1.9 1.4 2.3 4 1.3 0.4 2.7 1.9 5 2.8 2.5-0.4 2.5 1.9 5.2 2.4 6.6 0 12.7 1.4 19.5 3.1l2.5 1.9c11.1-0.5 20.9 1.8 32.2 1.8 1.9 0.5 2.3 2.4 5 2.8h5.6c1.9 1.7 3.9 2.6 5.8 4 0 1.4 0.9 2.3 1.3 4.2 3.6 1.6 7 0 11.1 2.6 0.9 2.8 4.3 4.2 6.1 7.2 5.6 1 10.6 0 16.8 0.5 1.8 0.4 2.2 2.3 5.2 2.8 4.9-1.5 9.4-3.9 13.3-7.2 1.6 0 2.6-0.5 4.4-1l1.8-2.4c2.3-0.4 4.4-0.9 7-1.6l2.3-2.4c7-2.3 14.5-2.8 21.1-4.7 3.6 0 8.3 0 12.4-1 7.9 0.5 12.2 0 17.9-1.2 1.4-1 1.8-2.9 2.8-5.1 2.1-2.5 4.5-4.8 7-6.8 1.3 0 2.2 0 4.1-0.5 1.5-1.3 1.5-4 2.9-5.8 1.4-0.4 2.6-1.5 3.1-2.9v-1.5l-2.2-2.6c-1.4-2.8-4.4-5.6-5.8-10 0.5-3.8 0-7.4 0.5-11.5 1.4-0.5 2.9-0.5 3.4-3.1 1.4-0.9 2.8-1.9 5.4-2.8 8.4-1.4 16.4 4 25.2 1.4 2 0 2.5-1.4 4.3-2.3l0.9-1.5 2.8-1.4c2.9-2.6 5.2-4.5 8.3-8.2 2.6-1 4.4-1 7.1-2.1l1.8-1.9c2.5 0 4.8-1.3 7-2.8 0.4-3.6 2.5-5.9 2.5-10.1l0.4-0.9c0.9-1.3 2.2-2.2 3.6-2.6h4.3c3.6-1.9 5.4-6.1 9.8-9.2h7l3.2-2.3c4.3 0 8.8-1.4 14.1-1l1.8-1.9c0-2-1.4-2.6-2.4-4.5-1.8 0-1.8-1.8-3.3-3.2-2.3-0.5-3.6-3.1-5.5-5.4l-2.9-1.3-1.4-3.1c-1.8-1-5-0.4-7 1.2l-1.8 2.9c-2.7 0-3.6 2.3-6.1 3.7-1.4-0.5-3.1 0-5-1.4l-2.5-1.9h-5.4l-3.8 2.8c-2.2 1.1-4.6 1.6-7 1.7l-2.8-2.1-0.9-1c-0.4-1.4-1.8-1.8-2.2-4.2 0-4.9 1.3-10.8 2.2-16l1.4-1.3c0.4-4.5 2.2-7.3 3.4-11.7l1.4-1c0.4-4.7 3.6-7.8 5.4-12l1.2-1c5.4-0.6 10.6 0 16.7 0 1.4-0.6 3.2-0.6 4.2-2.1 2.2-3.3 5.6-6.1 8.8-9.6 1.8-3.8 0.9-7.3 1.8-11.5 2-3 2.9-7.7 5.2-11.7l1.4-1c1.3-1 1.3-3.3 1.3-5.6 0.5-0.5 2.6-2.6 3.4-3.5l1.4-2.8c-0.9-2.8 0.4-5.4-0.4-8.7l-1-0.9c-2.2 0-4.3-0.5-7-0.5l-3.1-4v-2.7c1.3-1.5 2.2-3.5 3.6-5.4l3.6-0.5c1.6 0 2.6-0.9 3.8-2.3 0.4-1 0.4-2.8 1.9-4l2.7-0.4 0.6-1.4 1-1c2.7-1 5.5-1.4 8.3-1.4 2.3 0 2.8-2.4 5.4-2.8 2.1 0 3-1.6 5.7-2.1 2.3 0 5.7 0.5 8.3-0.9 2.8 1.4 5.3 0.4 8.4 0.9 3.3 0.7 6.3 2.3 8.8 4.5 1.4 0 2.6-1 3.8-2.4 2.3-1.2 4.1 0 7-0.7 0.9 2.1 4.1 1.7 5.4 3.5 1 0.4 1 3.3 2.6 4.2 2.2 2.1 3.1 4.9 6.7 7.2 0.4 1.9 0 4.5 2 5.9l1.4 1c1.3 0.9 0.9 4.5 2.7 5.9 2.5 1.5 4.2 3.9 4.7 6.8 1 1.9 2.3 3.8 3.6 5.6 1.4 0 2.3 1 4.4 1.3 0.4 1.2 0.4 3.6 2.2 4 0.4 3.8 1.8 7.2 2.8 11.5 0.9 0 2 1.9 2.5 3.5l2.2 2.4c5.7 1.9 13.2 1 19.5 1.5 2.4 1.8 4.8 2.8 7 4.9 1.8 0 4.7-0.5 7 0.9 1.3 1.9 3.2 4.2 6.1 5.8 0.4 1.4 0.9 2.4 2.7 3.3 0.9 1.4 1.4 2.8 2.2 5.4l0.4 2.8 1.6 0.4c1.9 0.5 3.6 2.8 5.4 4.2 4.7 0 8.4-2.3 13.6-3.7 2.2-1.9 2.2-4.9 5.6-5.9 0-1.9 2.3-2.8 1.9-5.6 1.8-2.6 4-3 7.5-4 2.2-3.3 6.5-5.9 9.7-8.6h2.7l2.6-1.9h1.3l2.8 2.4c0.4 1.3 0.4 2.3 0 4.4-1.3 1.1-2.2 2.6-2.8 4.2 0 2.6 0.9 4.5 0 7.2 2 3.5 2.2 7.8 0.5 11.5l-1.4 1.2c-3.4 13.9 0 29.8-1.8 44.8-0.6 1.4-1.2 4.2-2.6 5.9-1.3 0.5-1.8 1.4-2.7 3.8-5.6-0.5-11.3-1-16.8 1.9l-0.4 3c-1.4 1.9-4.8 2.3-6.1 5.1 0 1.4 1.3 4 1.3 5.8 1 3.8 4.8 6.4 4.8 11.5 3.7 5 2.4 12.2 4.2 19.1-1.8 1.9-3.2 4.7-5.4 7-1.2 4 0 7.7-2.5 11.7l-0.9 1c-1.3 0.5-2.3 0.5-4.1 0l-0.9-2.8c-1.2-0.9-2.7-1.5-4.3-1.7-2.3 2.6-3.2 6.4-5.7 10.4-3.2 3.2-7 6.5-10.2 11 0 1.9 1.4 2.4 2.3 4.2 0 2.6-1.4 3.1-2.2 5.4l-2.8 1.9c-6.6 1.6-12.7 0-19.7-1.4-1.4 0.4-3.2 0.4-4.1 1.9-1 1.7-1.9 3.1-3 5.9v1.4l-2.2 2.6c-0.4 1.4-1.8 1.9-2.2 4.2v1.4c0 3.1-3.8 4-4.4 7.3l-0.9 2.8c-4.1 2.1-2.8 4.9-4.1 6.8-2.7 1.3-4.9 3.6-6.1 6.4v1.4c-5.2 4.7-12.1 7.1-19.1 6.8-2 1-3.8 1.3-5.6 3.8 0 1.6-0.9 2.6-1.4 4.4-0.9 1.4-1.3 2.4-3.4 4.2 0 1.6-0.9 2.6-1.3 4.5l-2.8 2.8c-0.4 1-0.4 3.1-1.8 4h-1.5c-1 1-1.4 2.4-2.8 3.8-3.6 0.9-5.6 3.5-9.7 3.5-0.5-2.1-1.9-2.6-2.8-5.4 0.9-1.3 1.4-2.9 1.3-4.5l1.9-1.9c3.6-6.8-0.9-15.4 1.8-23l2.2-1.6c1.6-1 1.2-4.2 2.9-5.6 0-2.5-0.4-4.9-1.3-7.2-2.6-0.4-3 1.9-5.8 2.4-1.3 0-2.2 0.4-4.3 0.9-2.3 1.9-2.7 4.5-4 7.2-0.4 1.5-1.9 1.9-3.2 4 0 1.4-1.2 2.4-1.6 4.3-2.7 1.3-5.4 3.2-9.7 4.9-2.9 3.5-5.4 7.4-7.5 11.5 0.4 1.8-1.4 1.8-0.9 4.2-1.8 1.7-3.6 3.1-5.7 5.4-1.8 0-2.7 1.3-5.4 1.8-1.3 0-2.5-0.4-4.4-0.9-1.3 0-3.2 0.4-4 1.4-2.5 1.2 0 3.5-0.9 5.8 0.9 2.8 2.8 4.5 4.5 6.8 2.8 0.9 6.7 0 9.8 0.4 4.1 0.9 7.7 3.3 10 6.8v6.8l-2.5 1.4 1.4 2.8c1.6 0 2.4 1 4.3 1 2.7-2.4 6.1-5.1 7.9-9.2l2.7-0.5c3.8-4.2 9.8-9.1 16.8-8.6l2.9 3.7c2.2 0 4.1 1.2 7 2.6l1.4-0.9c2.2 0 3.6 2.4 7 2.4 1.3-0.5 2.2 0 4-0.5 1.8 0 2.3 1.4 4.3 2.4l1 3c-4.2 5.3-9.4 9.5-15.4 12.5l-0.5 1.4c-1.3 1.4-4.7 0.5-7 1.9l-0.9 1.2c-0.9 1.9-0.4 5.1-2.2 7l-1.6 1c-1.1 1.8-2 3.7-2.7 5.6-3.7 3.1-7.9 5.4-10.2 11.3-1.4 1.4-3.5 1.9-3.8 4.7-1.4 0.4-1.9 2.3-3.2 4.4 0 2.8 2.7 2.4 3.6 4.7 2 1.9 5.8 0.9 8.4 1.4 2 2.6 4.8 0.9 6.1 4l2.7 1.4c1.6 1.4 1.2 4.9 1.6 7.2l3.2 3.8c0.4 6.8 3.6 13.1 2.8 20.4l0.4 1.4c2 2.4 5.6 2.4 7.9 6.4 1.8 2.7 3.3 5.6 4.3 8.6l2.8 2.8c0.9 2.3 2.9 5.4 2.9 8.6 1.6 2.4 3.8 4.4 6.3 5.8l1.6 3.3c-1.6 3.1-5.2 4.5-7.9 7.2-1.6 0.5-2 1.9-4.3 2.4H824l-1.6 2.6 1.1 1c2.8 0.9 6.4-0.5 9.8 0 2.4 3.2 5.4 5.8 8.8 7.7 0.9 5.6 2.8 11 2.3 17.4l-1.4 4.2c-2.2 3.6 0 8.7 0 13.2l-0.9 1.4c-1.3 1-3.4 1.8-5.6 2.8-1.9 2.2-2.3 5.4-5.1 7.7-0.6 5-3.3 8.7-5.1 13.2 0 2.8-1.9 3.7-2.3 7.3 0 1.9-1.6 2.8-2 5.6 0 1.5 0 4-1 5.9-0.9 0.5-2.7 0.5-3.6 1.9 0 0.9 0 3.5-1.7 3.9-1.2 3.8 0.4 7.3 0.4 11.5-1.2 2.8-2.9 4.9-3.8 8.7l-1 1-1.3 0.4-0.9 0.9c-0.9 1.7 0 2.6-0.9 4.5l-2.5 1.9c-2.3 1.4-2.3 6.3-4.5 8.2l-2.5 1.9c-2.2 0.9-4 0-6.8 0.4l-2 2.6c-0.9 1.4 0 3.7 0 5.6l-2.3 1.7c-3.2 1.9-4 6.1-7.9 9.2-1.3 0-2.2 1-4 1.4l-1.2 1c-0.4 1.9 2.4 1 2.9 3.3l-0.9 0.9H772c-0.9 3-4.9 3-6.6 5.8 0 4-3.2 6.4-5.9 8.3H758c-3.2 4-8.8 5.4-14.3 5l-3.8 3.2c-2.7 0.5-5-0.9-8.3 1l-1.4 1.3c-3.6 1-6.6 5.4-11.1 6.8l-1.5-0.9c-1.9 0.5-2.8 1.9-5.5 2.4l-1.3-0.5c-0.5-1.4 0-2.4-0.5-4.2l-2.5-1c-0.9 0.5-0.9 2.4-1.8 3.8l-2.3 1.8h-4.3c-2.3 0.3-4.3 1.6-5.4 3.5 0 1.9-1.6 1.9-2 4.3-3.2 2.6-8.3 1.4-12.5 2.6l-1.3 2.3c-1.3 0.9-2.8 1.4-4.4 1.4-2.7 0.5-4.1 3.3-7 4.9-2.7-0.3-5.3-0.1-7.9 0.5l-1.3 1.4c-1.5 0.5-1.9 1.9-4.2 2.3-1.6 0-2.5 0.5-4.3 1l-1.5 2.6 1.5 0.9c0.8 1.4 1.8 2.9 2.7 5.6 0 2.6-2.3 4.5-2.3 7.3-0.4 1.4-3.6 0.9-4.5 3.1v1.3c5.4 2.5 10.7 0 16.8 2l1.8 2.3c0 1.4 0 4-0.9 5.8l-2.9 1c-1.8 1.4-3.2 3.8-5.4 6.3-0.4 3.3 1.4 8.2-0.9 11.5l-2.9 1.4-1.3 3c-2.3 1.8-5.1 2.9-8 3.3-0.4 1.9-3.2 1.4-4 2.8l-10.1 0.6z" p-id="4936"></path></svg>